HIERARCHY
ROOT Hips
{
	OFFSET 0.000000 0.000000 0.000000
	CHANNELS 6 Xposition Yposition Zposition Xrotation Yrotation Zrotation
	JOINT Spine
	{
		OFFSET 0.000000 -0.000000 1.489414
		CHANNELS 3 Xrotation Yrotation Zrotation
		JOINT Spine1
		{
			OFFSET 0.000000 -0.000001 4.064482
			CHANNELS 3 Xrotation Yrotation Zrotation
			JOINT Neck
			{
				OFFSET 0.000000 -0.000001 4.427754
				CHANNELS 3 Xrotation Yrotation Zrotation
				JOINT Head
				{
					OFFSET 0.000000 -0.363272 2.815356
					CHANNELS 3 Xrotation Yrotation Zrotation
					End Site
					{
						OFFSET 0.000000 -0.000001 3.632717
					}
				}
			}
			JOINT LeftShoulder
			{
				OFFSET 0.731535 0.096024 3.575184
				CHANNELS 3 Xrotation Yrotation Zrotation
				JOINT LeftArm
				{
					OFFSET 2.610319 0.000000 0.000000
					CHANNELS 3 Xrotation Yrotation Zrotation
					JOINT LeftForeArm
					{
						OFFSET 5.118421 0.000000 0.000000
						CHANNELS 3 Xrotation Yrotation Zrotation
						JOINT LeftHand
						{
							OFFSET 4.756909 0.000000 0.000000
							CHANNELS 3 Xrotation Yrotation Zrotation
							End Site
							{
								OFFSET 2.724539 0.000000 0.000000
							}
						}
					}
				}
			}
			JOINT RightShoulder
			{
				OFFSET -0.721442 0.096024 3.575184
				CHANNELS 3 Xrotation Yrotation Zrotation
				JOINT RightArm
				{
					OFFSET -2.610319 0.000000 0.000000
					CHANNELS 3 Xrotation Yrotation Zrotation
					JOINT RightForeArm
					{
						OFFSET -5.118422 0.000000 0.000000
						CHANNELS 3 Xrotation Yrotation Zrotation
						JOINT RightHand
						{
							OFFSET -4.756909 0.000000 0.000000
							CHANNELS 3 Xrotation Yrotation Zrotation
							End Site
							{
								OFFSET -2.724539 0.000000 0.000000
							}
						}
					}
				}
			}
		}
	}
	JOINT LeftUpLeg
	{
		OFFSET 1.816359 0.000000 0.000000
		CHANNELS 3 Xrotation Yrotation Zrotation
		JOINT LeftLeg
		{
			OFFSET 0.000000 0.000001 -7.638974
			CHANNELS 3 Xrotation Yrotation Zrotation
			JOINT LeftFoot
			{
				OFFSET 0.000000 0.000001 -8.008609
				CHANNELS 3 Xrotation Yrotation Zrotation
				JOINT LeftToeBase
				{
					OFFSET 0.000000 -2.724539 -1.180634
					CHANNELS 3 Xrotation Yrotation Zrotation
					End Site
					{
						OFFSET 0.000000 -0.726544 0.000000
					}
				}
			}
		}
	}
	JOINT RightUpLeg
	{
		OFFSET -1.816359 0.000000 0.000000
		CHANNELS 3 Xrotation Yrotation Zrotation
		JOINT RightLeg
		{
			OFFSET 0.000000 0.000001 -7.638974
			CHANNELS 3 Xrotation Yrotation Zrotation
			JOINT RightFoot
			{
				OFFSET 0.000000 0.000001 -8.008609
				CHANNELS 3 Xrotation Yrotation Zrotation
				JOINT RightToeBase
				{
					OFFSET 0.000000 -2.724539 -1.180634
					CHANNELS 3 Xrotation Yrotation Zrotation
					End Site
					{
						OFFSET 0.000000 -0.726544 0.000000
					}
				}
			}
		}
	}
}
MOTION
Frames: 9
Frame Time: 0.041667
22.311125 0.904899 16.088011 11.840746 1.755606 206.397839 -12.820248 -4.676947 -2.209423 19.733774 -1.147160 -0.381851 12.201886 -5.489871 10.254206 4.057310 12.724063 11.879066 -8.439546 -17.193331 -0.282057 4.432023 25.282473 -19.413918 -14.714838 -10.057431 -20.707887 -12.816545 4.954697 -1.334402 -3.968543 16.572983 -6.106148 26.411158 -10.726242 25.257256 -53.982615 35.310691 119.621993 1.962800 27.159909 5.882830 10.074849 5.690132 -15.785554 20.012946 1.705819 -9.558914 -2.643823 -12.218043 7.894953 0.000001 0.000000 0.000000 -75.780662 -3.513806 9.918598 69.385843 -54.963700 2.611376 0.474496 -5.972689 -26.244934 0.000001 0.000001 0.000000 
22.271475 0.924052 16.077518 11.471155 2.033979 207.174404 -12.959980 -4.495277 -2.318021 19.567642 -1.015106 -0.447274 12.148411 -5.419716 10.244430 4.128518 12.646366 11.854921 -8.409144 -17.170609 -0.269124 4.463843 25.295039 -19.511190 -14.797284 -10.068314 -20.723217 -12.898010 4.922768 -1.287006 -3.919987 16.591715 -6.211668 26.149629 -10.812693 25.154309 -53.693002 35.153280 119.660953 2.071187 27.133729 5.844531 9.913319 5.943548 -15.944622 20.074546 1.758455 -9.642897 -2.716562 -12.205635 7.388991 0.000000 0.000000 -0.000000 -75.071716 -3.651911 9.659382 67.682510 -54.503076 1.658751 0.594680 -6.535820 -25.877524 0.000001 0.000001 0.000000 
22.230707 0.945750 16.066723 11.147997 2.312440 207.975804 -13.079335 -4.321387 -2.428352 19.430708 -0.877737 -0.513542 12.175333 -5.401422 10.184725 4.069016 12.656796 11.799463 -8.364566 -17.188420 -0.293775 4.322209 25.386155 -19.556753 -14.764685 -10.069060 -20.690873 -12.867268 4.914682 -1.310498 -3.880580 16.572821 -6.286089 25.897892 -10.897517 24.992586 -53.451575 35.004801 119.700978 2.123989 27.139982 5.886113 9.810002 6.213981 -15.935378 20.165678 1.682616 -9.781128 -2.803162 -12.219252 6.798695 0.000002 -0.000000 0.000000 -74.337115 -3.806015 9.415481 65.995487 -53.945958 0.505492 0.790555 -7.108191 -25.387842 -0.000001 0.000002 0.000000 
22.190073 0.965605 16.053375 10.782439 2.614209 208.758394 -13.179962 -4.098945 -2.495292 19.270078 -0.754756 -0.564916 12.162924 -5.387149 10.136671 4.029743 12.670447 11.756042 -8.374968 -17.166588 -0.365402 4.188880 25.409931 -19.547660 -14.702561 -10.033718 -20.657644 -12.814604 4.916681 -1.310939 -3.876872 16.587878 -6.382207 25.729992 -11.004651 24.865372 -53.273392 34.881134 119.774074 2.206256 27.133471 5.826837 9.685672 6.485318 -16.021191 20.220662 1.724579 -9.599277 -2.932861 -12.269257 5.953744 -0.000001 0.000000 0.000001 -73.637246 -3.978189 9.208135 64.448374 -53.270425 -0.410580 1.023015 -7.402264 -24.940743 0.000000 0.000006 -0.000001 
22.148018 0.986391 16.041521 10.459211 2.866712 209.588603 -13.302889 -3.962994 -2.628947 19.176233 -0.581427 -0.642916 12.089804 -5.346134 10.118137 4.028884 12.610002 11.734085 -8.327432 -17.184804 -0.348461 4.295310 25.418904 -19.711823 -14.805340 -10.101623 -20.667080 -12.906407 4.891818 -1.263017 -3.868964 16.600420 -6.441586 25.454170 -11.176385 24.700300 -52.995455 34.722264 119.839890 2.325708 27.212759 5.763749 9.658633 6.652849 -16.120221 20.231790 1.767340 -9.769756 -3.102189 -12.400558 5.413006 0.000001 0.000000 -0.000000 -72.854739 -4.108331 9.006057 62.834701 -52.614419 -1.493879 1.252877 -7.705341 -24.427388 0.000004 -0.000001 0.000000 
22.105839 1.011554 16.029015 10.158769 3.110282 210.464110 -13.423620 -3.735900 -2.765024 19.097460 -0.547008 -0.701634 12.034864 -5.300697 10.069120 4.002770 12.576655 11.685106 -8.331568 -17.156189 -0.389943 4.250726 25.457807 -19.778478 -14.802809 -10.108315 -20.666325 -12.902544 4.848733 -1.279111 -3.784577 16.597517 -6.598896 25.294806 -11.203226 24.670389 -52.891923 34.337670 119.857744 1.744403 26.682110 6.457054 9.643935 6.826711 -16.277476 20.227054 1.771095 -9.811975 -3.244634 -12.446275 4.752496 0.000003 -0.000000 0.000001 -72.043462 -4.258332 8.780357 61.430742 -51.741811 -2.280173 1.329018 -8.159846 -23.774036 -0.000002 0.000003 0.000001 
22.062969 1.031385 16.014555 9.808790 3.343626 211.279567 -13.554794 -3.591954 -2.860912 19.016444 -0.378072 -0.766235 11.974599 -5.315678 10.027901 3.943118 12.613362 11.656047 -8.302685 -17.169719 -0.428326 4.112416 25.501963 -19.807668 -14.763830 -10.116168 -20.662972 -12.860960 4.870626 -1.307234 -3.746285 16.590835 -6.694533 24.944676 -11.385080 24.523642 -52.591360 34.248208 119.900201 1.990189 26.808142 6.273758 9.556246 7.040051 -16.308115 20.277686 1.774845 -10.153397 -3.351703 -12.547017 4.366038 -0.000001 0.000000 0.000000 -71.295468 -4.463083 8.552625 59.979579 -50.782426 -3.153309 1.550672 -8.502022 -23.359230 0.000003 0.000003 -0.000002 
22.021000 1.050052 16.001390 9.459557 3.564105 212.117262 -13.639428 -3.425510 -2.963547 18.881035 -0.263228 -0.825358 11.933452 -5.257999 9.971078 3.844205 12.562405 11.604471 -8.311337 -17.163702 -0.476357 4.301600 25.492438 -19.928354 -14.880127 -10.189981 -20.728956 -12.960742 4.820781 -1.247809 -3.683588 16.625645 -6.794159 24.768081 -11.515059 24.439465 -52.204724 33.248767 119.902892 0.535123 25.519390 8.203483 9.463306 7.275126 -16.497484 20.343232 1.776726 -10.245023 -3.448437 -12.662758 3.883383 -0.000002 0.000000 0.000000 -70.514996 -4.659900 8.404798 58.559467 -49.804411 -4.184577 1.792095 -8.687933 -22.639087 -0.000000 0.000001 0.000000 
21.977173 1.068578 15.986359 9.083188 3.774272 212.944548 -13.773804 -3.252235 -3.042304 18.796868 -0.140075 -0.877629 11.835949 -5.228966 9.929167 3.826583 12.512287 11.562500 -8.301232 -17.174185 -0.530387 4.235025 25.545268 -19.984787 -14.874924 -10.198395 -20.754225 -12.950228 4.756902 -1.298247 -3.764329 16.578066 -6.748932 23.904658 -11.878652 24.011247 -51.118427 32.829267 119.880093 1.019768 25.642789 7.968579 9.372140 7.549298 -16.575454 20.400168 1.707667 -10.481971 -3.527120 -12.752125 3.522012 0.000002 -0.000000 -0.000001 -69.774057 -4.855274 8.308342 57.161843 -48.737150 -4.976701 2.002385 -9.258032 -22.183512 0.000000 -0.000004 0.000000 
